# xmcd
#
# Track frame offsets:
#	150
#	15032
#	25595
#	44202
#	57378
#	71036
#	87794
#	97957
#	113649
#	123612
#
# Disc length: 1843 seconds
#
# Revision: 1
# Processed by: cddbd v1.5.2PL0 Copyright (c) Steve Scherf et al.
# Submitted via: EasyCDDAExtractor 15.3.0.1
#
DISCID=7a07310a
DTITLE=Kevin Banford and The Bakersfield Boys - King Of The Thrift Store Cowbo
DTITLE=ys
DYEAR=2001
DGENRE=Country
TTITLE0=Good Enough For Me
TTITLE1=Guitars  Guns  God and Girls
TTITLE2=Old El Paso
TTITLE3=Katie Bar The Door
TTITLE4=Cowgirls Rodeo
TTITLE5=Pride In My Misery
TTITLE6=By The Side Of The Road
TTITLE7=There By Grace
TTITLE8=King Of The Thrift Store Cowboys
TTITLE9=Texas Love
EXTD=
EXTT0=
EXTT1=
EXTT2=
EXTT3=
EXTT4=
EXTT5=
EXTT6=
EXTT7=
EXTT8=
EXTT9=
PLAYORDER=
